<mxfile host="65bd71144e">
    <diagram id="R2lEEEUBdFMjLlhIrx00" name="Page-1">
        <mxGraphModel dx="2738" dy="1464" grid="1" gridSize="10" guides="1" tooltips="1" connect="1" arrows="1" fold="1" page="1" pageScale="1" pageWidth="700" pageHeight="1000" math="0" shadow="0" extFonts="Permanent Marker^https://fonts.googleapis.com/css?family=Permanent+Marker">
            <root>
                <mxCell id="0"/>
                <mxCell id="1" parent="0"/>
                <mxCell id="Ci3cu0jDoSGofdBfNgbZ-3" value="Admin" style="rounded=0;whiteSpace=wrap;html=1;" parent="1" vertex="1">
                    <mxGeometry x="-360" y="1235" width="120" height="60" as="geometry"/>
                </mxCell>
                <mxCell id="Ci3cu0jDoSGofdBfNgbZ-5" value="1.0" style="swimlane;startSize=23;rounded=1;" parent="1" vertex="1">
                    <mxGeometry x="258" y="50" width="190" height="60" as="geometry"/>
                </mxCell>
                <mxCell id="Ci3cu0jDoSGofdBfNgbZ-6" value="Register" style="text;html=1;align=center;verticalAlign=middle;resizable=0;points=[];autosize=1;strokeColor=none;fillColor=none;rotation=0;" parent="Ci3cu0jDoSGofdBfNgbZ-5" vertex="1">
                    <mxGeometry x="60" y="30" width="70" height="30" as="geometry"/>
                </mxCell>
                <mxCell id="Ci3cu0jDoSGofdBfNgbZ-19" value="user" style="shape=partialRectangle;fillColor=none;align=left;verticalAlign=middle;strokeColor=default;spacingLeft=34;rotatable=0;points=[[0,0.5],[1,0.5]];portConstraint=eastwest;dropTarget=0;strokeWidth=1;perimeterSpacing=1;right=0;" parent="1" vertex="1">
                    <mxGeometry x="960" y="50" width="90" height="30" as="geometry"/>
                </mxCell>
                <mxCell id="Ci3cu0jDoSGofdBfNgbZ-20" value="D1" style="shape=partialRectangle;top=0;left=0;bottom=0;fillColor=none;stokeWidth=1;dashed=1;align=left;verticalAlign=middle;spacingLeft=4;spacingRight=4;overflow=hidden;rotatable=0;points=[];portConstraint=eastwest;part=1;strokeColor=default;" parent="Ci3cu0jDoSGofdBfNgbZ-19" vertex="1" connectable="0">
                    <mxGeometry width="30" height="30" as="geometry"/>
                </mxCell>
                <mxCell id="57" value="Landlord" style="shape=partialRectangle;fillColor=none;align=left;verticalAlign=middle;strokeColor=default;spacingLeft=34;rotatable=0;points=[[0,0.5],[1,0.5]];portConstraint=eastwest;dropTarget=0;strokeWidth=1;perimeterSpacing=1;right=0;" parent="1" vertex="1">
                    <mxGeometry x="960" y="200" width="90" height="30" as="geometry"/>
                </mxCell>
                <mxCell id="58" value="D2" style="shape=partialRectangle;top=0;left=0;bottom=0;fillColor=none;stokeWidth=1;dashed=1;align=left;verticalAlign=middle;spacingLeft=4;spacingRight=4;overflow=hidden;rotatable=0;points=[];portConstraint=eastwest;part=1;strokeColor=default;" parent="57" connectable="0" vertex="1">
                    <mxGeometry width="30" height="30" as="geometry"/>
                </mxCell>
                <mxCell id="139" value="User" style="rounded=0;whiteSpace=wrap;html=1;" parent="1" vertex="1">
                    <mxGeometry x="-360" y="140" width="120" height="60" as="geometry"/>
                </mxCell>
                <mxCell id="169" value="2.0" style="swimlane;startSize=23;rounded=1;" parent="1" vertex="1">
                    <mxGeometry x="258" y="170" width="190" height="60" as="geometry"/>
                </mxCell>
                <mxCell id="170" value="Login" style="text;html=1;align=center;verticalAlign=middle;resizable=0;points=[];autosize=1;strokeColor=none;fillColor=none;rotation=0;" parent="169" vertex="1">
                    <mxGeometry x="70" y="30" width="50" height="30" as="geometry"/>
                </mxCell>
                <mxCell id="171" value="3.0" style="swimlane;startSize=23;rounded=1;" parent="1" vertex="1">
                    <mxGeometry x="258" y="290" width="190" height="60" as="geometry"/>
                </mxCell>
                <mxCell id="172" value="Add, edit, delete Property" style="text;html=1;align=center;verticalAlign=middle;resizable=0;points=[];autosize=1;strokeColor=none;fillColor=none;rotation=0;" parent="171" vertex="1">
                    <mxGeometry x="15" y="30" width="160" height="30" as="geometry"/>
                </mxCell>
                <mxCell id="173" value="4.0" style="swimlane;startSize=23;rounded=1;" parent="1" vertex="1">
                    <mxGeometry x="258" y="410" width="190" height="60" as="geometry"/>
                </mxCell>
                <mxCell id="174" value="Approve / reject property status" style="text;html=1;align=center;verticalAlign=middle;resizable=0;points=[];autosize=1;strokeColor=none;fillColor=none;rotation=0;" parent="173" vertex="1">
                    <mxGeometry x="-5" y="30" width="190" height="30" as="geometry"/>
                </mxCell>
                <mxCell id="196" value="5.0" style="swimlane;startSize=23;rounded=1;" parent="1" vertex="1">
                    <mxGeometry x="258" y="525" width="190" height="60" as="geometry"/>
                </mxCell>
                <mxCell id="197" value="Search Property" style="text;html=1;align=center;verticalAlign=middle;resizable=0;points=[];autosize=1;strokeColor=none;fillColor=none;rotation=0;" parent="196" vertex="1">
                    <mxGeometry x="35" y="30" width="110" height="30" as="geometry"/>
                </mxCell>
                <mxCell id="198" value="8.0" style="swimlane;startSize=23;rounded=1;" parent="1" vertex="1">
                    <mxGeometry x="258" y="885" width="190" height="60" as="geometry"/>
                </mxCell>
                <mxCell id="199" value="Approve / Disapprove Booking" style="text;html=1;align=center;verticalAlign=middle;resizable=0;points=[];autosize=1;strokeColor=none;fillColor=none;rotation=0;" parent="198" vertex="1">
                    <mxGeometry y="30" width="190" height="30" as="geometry"/>
                </mxCell>
                <mxCell id="200" value="9.0" style="swimlane;startSize=23;rounded=1;" parent="1" vertex="1">
                    <mxGeometry x="258" y="1005" width="190" height="60" as="geometry"/>
                </mxCell>
                <mxCell id="201" value="Profile edit, delete" style="text;html=1;align=center;verticalAlign=middle;resizable=0;points=[];autosize=1;strokeColor=none;fillColor=none;rotation=0;" parent="200" vertex="1">
                    <mxGeometry x="35" y="30" width="120" height="30" as="geometry"/>
                </mxCell>
                <mxCell id="202" value="10.0" style="swimlane;startSize=23;rounded=1;" parent="1" vertex="1">
                    <mxGeometry x="258" y="1115" width="190" height="60" as="geometry"/>
                </mxCell>
                <mxCell id="203" value="Add rating" style="text;html=1;align=center;verticalAlign=middle;resizable=0;points=[];autosize=1;strokeColor=none;fillColor=none;rotation=0;" parent="202" vertex="1">
                    <mxGeometry x="55" y="30" width="80" height="30" as="geometry"/>
                </mxCell>
                <mxCell id="204" value="11.0" style="swimlane;startSize=23;rounded=1;" parent="1" vertex="1">
                    <mxGeometry x="258" y="1235" width="190" height="60" as="geometry"/>
                </mxCell>
                <mxCell id="205" value="View Ratings" style="text;html=1;align=center;verticalAlign=middle;resizable=0;points=[];autosize=1;strokeColor=none;fillColor=none;rotation=0;" parent="204" vertex="1">
                    <mxGeometry x="50" y="30" width="90" height="30" as="geometry"/>
                </mxCell>
                <mxCell id="208" value="12.0" style="swimlane;startSize=23;rounded=1;" parent="1" vertex="1">
                    <mxGeometry x="258" y="1355" width="190" height="60" as="geometry"/>
                </mxCell>
                <mxCell id="209" value="Add wishlist" style="text;html=1;align=center;verticalAlign=middle;resizable=0;points=[];autosize=1;strokeColor=none;fillColor=none;rotation=0;" parent="208" vertex="1">
                    <mxGeometry x="50" y="30" width="90" height="30" as="geometry"/>
                </mxCell>
                <mxCell id="210" value="13.0" style="swimlane;startSize=23;rounded=1;" parent="1" vertex="1">
                    <mxGeometry x="258" y="1475" width="190" height="60" as="geometry"/>
                </mxCell>
                <mxCell id="211" value="Merit score" style="text;html=1;align=center;verticalAlign=middle;resizable=0;points=[];autosize=1;strokeColor=none;fillColor=none;rotation=0;" parent="210" vertex="1">
                    <mxGeometry x="55" y="30" width="80" height="30" as="geometry"/>
                </mxCell>
                <mxCell id="215" value="Landlord" style="rounded=0;whiteSpace=wrap;html=1;" parent="1" vertex="1">
                    <mxGeometry x="-360" y="610" width="120" height="60" as="geometry"/>
                </mxCell>
                <mxCell id="298" value="Booking" style="shape=partialRectangle;fillColor=none;align=left;verticalAlign=middle;strokeColor=default;spacingLeft=34;rotatable=0;points=[[0,0.5],[1,0.5]];portConstraint=eastwest;dropTarget=0;strokeWidth=1;perimeterSpacing=1;right=0;" parent="1" vertex="1">
                    <mxGeometry x="960" y="640" width="90" height="30" as="geometry"/>
                </mxCell>
                <mxCell id="299" value="D5" style="shape=partialRectangle;top=0;left=0;bottom=0;fillColor=none;stokeWidth=1;dashed=1;align=left;verticalAlign=middle;spacingLeft=4;spacingRight=4;overflow=hidden;rotatable=0;points=[];portConstraint=eastwest;part=1;strokeColor=default;" parent="298" vertex="1" connectable="0">
                    <mxGeometry width="30" height="30" as="geometry"/>
                </mxCell>
                <mxCell id="300" value="Rating" style="shape=partialRectangle;fillColor=none;align=left;verticalAlign=middle;strokeColor=default;spacingLeft=34;rotatable=0;points=[[0,0.5],[1,0.5]];portConstraint=eastwest;dropTarget=0;strokeWidth=1;perimeterSpacing=1;right=0;" parent="1" vertex="1">
                    <mxGeometry x="960" y="800" width="90" height="30" as="geometry"/>
                </mxCell>
                <mxCell id="301" value="D6" style="shape=partialRectangle;top=0;left=0;bottom=0;fillColor=none;stokeWidth=1;dashed=1;align=left;verticalAlign=middle;spacingLeft=4;spacingRight=4;overflow=hidden;rotatable=0;points=[];portConstraint=eastwest;part=1;strokeColor=default;" parent="300" vertex="1" connectable="0">
                    <mxGeometry width="30" height="30" as="geometry"/>
                </mxCell>
                <mxCell id="328" value="Wishlist" style="shape=partialRectangle;fillColor=none;align=left;verticalAlign=middle;strokeColor=default;spacingLeft=34;rotatable=0;points=[[0,0.5],[1,0.5]];portConstraint=eastwest;dropTarget=0;strokeWidth=1;perimeterSpacing=1;right=0;" parent="1" vertex="1">
                    <mxGeometry x="960" y="960" width="90" height="30" as="geometry"/>
                </mxCell>
                <mxCell id="329" value="D7" style="shape=partialRectangle;top=0;left=0;bottom=0;fillColor=none;stokeWidth=1;dashed=1;align=left;verticalAlign=middle;spacingLeft=4;spacingRight=4;overflow=hidden;rotatable=0;points=[];portConstraint=eastwest;part=1;strokeColor=default;" parent="328" vertex="1" connectable="0">
                    <mxGeometry width="30" height="30" as="geometry"/>
                </mxCell>
                <mxCell id="337" value="Merit" style="shape=partialRectangle;fillColor=none;align=left;verticalAlign=middle;strokeColor=default;spacingLeft=34;rotatable=0;points=[[0,0.5],[1,0.5]];portConstraint=eastwest;dropTarget=0;strokeWidth=1;perimeterSpacing=1;right=0;" parent="1" vertex="1">
                    <mxGeometry x="960" y="1115" width="90" height="30" as="geometry"/>
                </mxCell>
                <mxCell id="338" value="D8" style="shape=partialRectangle;top=0;left=0;bottom=0;fillColor=none;stokeWidth=1;dashed=1;align=left;verticalAlign=middle;spacingLeft=4;spacingRight=4;overflow=hidden;rotatable=0;points=[];portConstraint=eastwest;part=1;strokeColor=default;" parent="337" vertex="1" connectable="0">
                    <mxGeometry width="30" height="30" as="geometry"/>
                </mxCell>
                <mxCell id="350" value="14.0" style="swimlane;startSize=23;rounded=1;" vertex="1" parent="1">
                    <mxGeometry x="258" y="1595" width="190" height="60" as="geometry"/>
                </mxCell>
                <mxCell id="351" value="Add/delete/edit Announcement" style="text;html=1;align=center;verticalAlign=middle;resizable=0;points=[];autosize=1;strokeColor=none;fillColor=none;rotation=0;" vertex="1" parent="350">
                    <mxGeometry y="30" width="190" height="30" as="geometry"/>
                </mxCell>
                <mxCell id="354" value="6.0" style="swimlane;startSize=23;rounded=1;" vertex="1" parent="1">
                    <mxGeometry x="258" y="645" width="190" height="60" as="geometry"/>
                </mxCell>
                <mxCell id="355" value="Categorised Property" style="text;html=1;align=center;verticalAlign=middle;resizable=0;points=[];autosize=1;strokeColor=none;fillColor=none;rotation=0;" vertex="1" parent="354">
                    <mxGeometry x="20" y="30" width="140" height="30" as="geometry"/>
                </mxCell>
                <mxCell id="356" value="7.0" style="swimlane;startSize=23;rounded=1;" vertex="1" parent="1">
                    <mxGeometry x="258" y="765" width="190" height="60" as="geometry"/>
                </mxCell>
                <mxCell id="357" value="Add Booking" style="text;html=1;align=center;verticalAlign=middle;resizable=0;points=[];autosize=1;strokeColor=none;fillColor=none;rotation=0;" vertex="1" parent="356">
                    <mxGeometry x="50" y="30" width="90" height="30" as="geometry"/>
                </mxCell>
                <mxCell id="360" value="Admin" style="shape=partialRectangle;fillColor=none;align=left;verticalAlign=middle;strokeColor=default;spacingLeft=34;rotatable=0;points=[[0,0.5],[1,0.5]];portConstraint=eastwest;dropTarget=0;strokeWidth=1;perimeterSpacing=1;right=0;" vertex="1" parent="1">
                    <mxGeometry x="960" y="360" width="90" height="30" as="geometry"/>
                </mxCell>
                <mxCell id="361" value="D3" style="shape=partialRectangle;top=0;left=0;bottom=0;fillColor=none;stokeWidth=1;dashed=1;align=left;verticalAlign=middle;spacingLeft=4;spacingRight=4;overflow=hidden;rotatable=0;points=[];portConstraint=eastwest;part=1;strokeColor=default;" connectable="0" vertex="1" parent="360">
                    <mxGeometry width="30" height="30" as="geometry"/>
                </mxCell>
                <mxCell id="362" value="Property" style="shape=partialRectangle;fillColor=none;align=left;verticalAlign=middle;strokeColor=default;spacingLeft=34;rotatable=0;points=[[0,0.5],[1,0.5]];portConstraint=eastwest;dropTarget=0;strokeWidth=1;perimeterSpacing=1;right=0;" vertex="1" parent="1">
                    <mxGeometry x="960" y="500" width="90" height="30" as="geometry"/>
                </mxCell>
                <mxCell id="363" value="D4" style="shape=partialRectangle;top=0;left=0;bottom=0;fillColor=none;stokeWidth=1;dashed=1;align=left;verticalAlign=middle;spacingLeft=4;spacingRight=4;overflow=hidden;rotatable=0;points=[];portConstraint=eastwest;part=1;strokeColor=default;" connectable="0" vertex="1" parent="362">
                    <mxGeometry width="30" height="30" as="geometry"/>
                </mxCell>
                <mxCell id="364" value="Announcement" style="shape=partialRectangle;fillColor=none;align=left;verticalAlign=middle;strokeColor=default;spacingLeft=34;rotatable=0;points=[[0,0.5],[1,0.5]];portConstraint=eastwest;dropTarget=0;strokeWidth=1;perimeterSpacing=1;right=0;" vertex="1" parent="1">
                    <mxGeometry x="960" y="1280" width="90" height="30" as="geometry"/>
                </mxCell>
                <mxCell id="365" value="D9" style="shape=partialRectangle;top=0;left=0;bottom=0;fillColor=none;stokeWidth=1;dashed=1;align=left;verticalAlign=middle;spacingLeft=4;spacingRight=4;overflow=hidden;rotatable=0;points=[];portConstraint=eastwest;part=1;strokeColor=default;" vertex="1" connectable="0" parent="364">
                    <mxGeometry width="30" height="30" as="geometry"/>
                </mxCell>
            </root>
        </mxGraphModel>
    </diagram>
</mxfile>